<?xml version="1.0" encoding="UTF-8"?>
<svg id="a" data-name="Layer 1" xmlns="http://www.w3.org/2000/svg" width="192" height="192" viewBox="0 0 192 192">
  <rect x="0" y="0" width="192" height="192"/>
  <g>
    <path d="M88.168,85.007c0,.81-.283,1.498-.849,2.064-.568,.567-1.255,.849-2.064,.849s-1.497-.283-2.064-.849c-.567-.566-.849-1.254-.849-2.064v-13.23c0-1.658-.101-2.488-.303-2.488-.162,0-.728,.546-1.7,1.639l-13.351,15.171c-.526,.607-1.174,1.062-1.943,1.365-.769,.304-1.598,.455-2.488,.455s-1.72-.151-2.488-.455c-.769-.303-1.417-.758-1.942-1.365l-13.352-15.171c-.931-1.092-1.497-1.639-1.699-1.639-.204,0-.304,.83-.304,2.488v13.23c0,.81-.283,1.498-.849,2.064s-1.255,.849-2.064,.849-1.497-.283-2.063-.849c-.568-.566-.85-1.254-.85-2.064v-17.72c0-1.618,.465-2.994,1.396-4.126,.93-1.133,2.205-1.7,3.823-1.7,.97,0,1.84,.243,2.609,.728,.769,.486,1.476,1.073,2.124,1.76l13.959,15.9c.202,.203,.455,.415,.758,.637s.617,.334,.94,.334,.637-.112,.94-.334c.304-.222,.556-.435,.759-.637l13.897-15.9h.061c.566-.768,1.254-1.375,2.064-1.82,.808-.445,1.699-.668,2.67-.668,1.618,0,2.892,.567,3.823,1.7,.93,1.133,1.396,2.509,1.396,4.126v17.72Z" fill="#fff"/>
    <path d="M155.052,74.69c0,1.538-.253,3.086-.758,4.643-.507,1.558-1.244,2.974-2.216,4.248-.97,1.274-2.144,2.316-3.519,3.125-1.376,.81-2.934,1.213-4.673,1.213h-27.674c-1.659-.08-3.135-.535-4.43-1.365-1.296-.829-2.398-1.87-3.308-3.125-.91-1.254-1.608-2.649-2.094-4.187-.485-1.537-.728-3.054-.728-4.552,0-1.537,.252-3.084,.759-4.643,.505-1.557,1.244-2.973,2.215-4.248s2.144-2.316,3.52-3.125c1.375-.809,2.933-1.214,4.673-1.214h27.673c1.658,.082,3.135,.537,4.43,1.365,1.294,.83,2.397,1.872,3.307,3.125,.91,1.255,1.609,2.651,2.094,4.187,.485,1.538,.728,3.056,.728,4.552Zm-9.042,6.645c.89-.505,1.587-1.122,2.094-1.851,.505-.728,.849-1.527,1.031-2.397s.273-1.669,.273-2.398-.091-1.526-.273-2.397c-.182-.869-.526-1.669-1.031-2.397-.507-.728-1.204-1.345-2.094-1.852-.891-.505-2.023-.758-3.398-.758h-24.518c-1.417,0-2.559,.253-3.429,.758-.87,.507-1.558,1.123-2.064,1.852s-.849,1.528-1.031,2.397c-.182,.871-.273,1.669-.273,2.397s.091,1.528,.273,2.398,.526,1.669,1.031,2.397,1.194,1.346,2.064,1.851c.87,.507,2.012,.759,3.429,.759h24.518c1.375,0,2.508-.252,3.398-.759Z" fill="#fff"/>
    <path d="M153.993,125.562c.563,.572,.844,1.258,.844,2.067s-.281,1.495-.844,2.067c-.572,.563-1.257,.844-2.067,.844h-38.535c-.888,0-1.776-.193-2.673-.572-.888-.387-1.671-.923-2.366-1.609-.686-.686-1.249-1.521-1.697-2.489-.449-.976-.668-2.067-.668-3.28v-15.592c0-.809,.281-1.504,.853-2.067,.563-.563,1.249-.853,2.058-.853h43.029c.809,0,1.495,.29,2.067,.853,.563,.563,.844,1.258,.844,2.067s-.281,1.495-.844,2.058c-.572,.572-1.257,.853-2.067,.853h-40.109v4.485h38.773c.809,0,1.504,.29,2.067,.853,.563,.572,.853,1.258,.853,2.067s-.29,1.495-.853,2.058c-.563,.572-1.257,.853-2.067,.853h-38.773v2.972c0,.404,.167,.756,.51,1.064,.343,.299,.8,.457,1.372,.457h38.227c.809,0,1.495,.281,2.067,.844Z" fill="#fff"/>
    <path d="M62.315,130.359h-.013c-1.457-.003-2.868-.595-3.891-1.628l-20.26-18.73c-1.203-1.112-1.413-2.992-.38-4.264,1.132-1.394,3.184-1.523,4.481-.324l18.367,16.98c.959,.887,2.439,.889,3.401,.005l18.852-17.327c1.252-1.15,3.197-1.068,4.347,.183,1.15,1.251,1.068,3.197-.183,4.347l-20.831,19.145c-1.026,1.027-2.436,1.613-3.889,1.613Z" fill="#fff"/>
  </g>
</svg>