<svg xmlns="http://www.w3.org/2000/svg" width="374.762" height="219.2" viewBox="0 0 374.762 219.2">
  <g>
    <path d="M169.582,81.852a9.244,9.244,0,1,1-18.487,0V39.873q0-7.893-.962-7.895-.773,0-5.393,5.2L102.376,85.319a15.611,15.611,0,0,1-6.164,4.333,22.3,22.3,0,0,1-15.789,0,15.54,15.54,0,0,1-6.162-4.333L31.9,37.178q-4.431-5.2-5.391-5.2t-.964,7.895V81.852A8.92,8.92,0,0,1,22.845,88.4,8.918,8.918,0,0,1,16.3,91.1a8.9,8.9,0,0,1-6.545-2.7,8.9,8.9,0,0,1-2.7-6.549V25.623a19.939,19.939,0,0,1,4.431-13.094q4.427-5.391,12.132-5.393A15.192,15.192,0,0,1,31.9,9.447a34.878,34.878,0,0,1,6.739,5.584L82.927,65.486a20.648,20.648,0,0,0,2.406,2.022,4.73,4.73,0,0,0,5.968,0,20.7,20.7,0,0,0,2.409-2.022l44.1-50.455H138a20.09,20.09,0,0,1,6.548-5.775,17.29,17.29,0,0,1,8.472-2.12q7.7,0,12.133,5.393a19.969,19.969,0,0,1,4.428,13.094Z" transform="translate(-7.053 -7.136)" fill="#fff"/>
    <path d="M381.815,49.116a47.521,47.521,0,0,1-2.407,14.732,45.028,45.028,0,0,1-7.03,13.481,38.372,38.372,0,0,1-11.168,9.916A28.669,28.669,0,0,1,346.383,91.1H258.57a28.044,28.044,0,0,1-14.056-4.333,38.49,38.49,0,0,1-10.5-9.916,46.068,46.068,0,0,1-6.643-13.288,46.269,46.269,0,0,1,.1-29.175A44.929,44.929,0,0,1,234.5,20.906a38.341,38.341,0,0,1,11.17-9.916A28.689,28.689,0,0,1,260.5,7.136h87.81a28.17,28.17,0,0,1,14.059,4.333,38.69,38.69,0,0,1,10.494,9.917A46.09,46.09,0,0,1,379.5,34.673,47.854,47.854,0,0,1,381.815,49.116ZM353.122,70.2a19.846,19.846,0,0,0,6.644-5.873,20.646,20.646,0,0,0,3.273-7.6,37.354,37.354,0,0,0,.866-7.609,37.35,37.35,0,0,0-.866-7.606,20.667,20.667,0,0,0-3.273-7.6,19.907,19.907,0,0,0-6.644-5.876,21.663,21.663,0,0,0-10.783-2.406h-77.8q-6.744,0-10.881,2.406a20.144,20.144,0,0,0-6.549,5.876,20.6,20.6,0,0,0-3.272,7.6,37.355,37.355,0,0,0-.867,7.606,37.36,37.36,0,0,0,.867,7.609,20.578,20.578,0,0,0,3.272,7.6A20.081,20.081,0,0,0,253.66,70.2q4.14,2.412,10.881,2.409h77.8A21.6,21.6,0,0,0,353.122,70.2Z" transform="translate(-7.053 -7.136)" fill="#fff"/>
    <path d="M378.456,210.543a9.237,9.237,0,0,1-6.558,15.794H249.619a21.694,21.694,0,0,1-8.483-1.814,24.541,24.541,0,0,1-7.507-5.107,27.246,27.246,0,0,1-5.385-7.9,24.609,24.609,0,0,1-2.121-10.408V151.636a9.242,9.242,0,0,1,9.237-9.265H371.9a9.193,9.193,0,0,1,9.236,9.265,9.193,9.193,0,0,1-9.236,9.236H244.624V175.1H367.656a9.254,9.254,0,0,1,6.558,15.794,8.868,8.868,0,0,1-6.558,2.706H244.624v9.432a4.4,4.4,0,0,0,1.618,3.377,6.409,6.409,0,0,0,4.354,1.451H371.9A9,9,0,0,1,378.456,210.543Z" transform="translate(-7.053 -7.136)" fill="#fff"/>
    <path d="M87.545,225.763H87.5A17.52,17.52,0,0,1,75.155,220.6L10.868,161.163a9.98,9.98,0,0,1-1.206-13.531A9.765,9.765,0,0,1,23.88,146.6l58.283,53.881a7.959,7.959,0,0,0,10.791.016l59.821-54.98a9.762,9.762,0,1,1,13.212,14.374l-66.1,60.752A17.523,17.523,0,0,1,87.545,225.763Z" transform="translate(-7.053 -7.136)" fill="#fff"/>
  </g>
</svg>
